<svg xmlns="http://www.w3.org/2000/svg" width="20" height="20" viewBox="0 0 20 20">
  <g id="ic_like_20_01" transform="translate(-24 -217)">
    <rect id="사각형_1877" data-name="사각형 1877" width="20" height="20" transform="translate(24 216)" fill="none"/>
    <rect id="사각형_1898" data-name="사각형 1898" width="16" height="16" rx="6" transform="translate(26 219)" fill="#476ff1"/>
    <path id="패스_5668" data-name="패스 5668" d="M4.443,1.269a.577.577,0,0,1,1,0l1,1.71a.578.578,0,0,0,.357.269l1.893.482a.579.579,0,0,1,.307.926L7.7,6.252a.58.58,0,0,0-.127.407l.152,2.063a.578.578,0,0,1-.806.574L5.172,8.534a.576.576,0,0,0-.46,0L2.962,9.3a.578.578,0,0,1-.806-.574l.152-2.063a.58.58,0,0,0-.127-.407L.89,4.655A.579.579,0,0,1,1.2,3.729L3.09,3.248a.578.578,0,0,0,.357-.269Z" transform="translate(29.239 222.018)" fill="#ffc814"/>
  </g>
</svg>
