<svg xmlns="http://www.w3.org/2000/svg" width="75" height="25" viewBox="0 0 75 17">
  <g id="logo_m_01" transform="translate(-52.894 -455.017)">
    <rect id="사각형_2" data-name="사각형 2" width="75" height="17" transform="translate(52.894 455.017)" fill="none"/>
    <g id="그룹_3674" data-name="그룹 3674" transform="translate(0 0.002)">
      <path id="패스_1" data-name="패스 1" d="M63.646,463.508h4.429l-1.3,6.52A9.278,9.278,0,0,1,64,471.356a11.769,11.769,0,0,1-3.357.464,9.225,9.225,0,0,1-4.069-.853,6.306,6.306,0,0,1-3.68-5.9,8.916,8.916,0,0,1,1.231-4.685,8.528,8.528,0,0,1,3.433-3.206,10.721,10.721,0,0,1,5.052-1.155q4.706,0,6.865,2.958l-3.65,2.828a4.271,4.271,0,0,0-1.533-1.285,4.569,4.569,0,0,0-1.918-.381,4.421,4.421,0,0,0-2.3.586,3.889,3.889,0,0,0-1.511,1.63,5.2,5.2,0,0,0-.531,2.384,2.768,2.768,0,0,0,.885,2.15,3.475,3.475,0,0,0,2.439.81,5.12,5.12,0,0,0,1.49-.216Zm12.176-3.3-.347,1.767h6.39l-.734,3.67h-6.41l-.389,1.986H81.91l-.777,3.843H68.568l3.022-15.112H83.875L83.1,460.2Zm12.993,0H84.389l.8-3.951H99.134l-.8,3.951H93.91l-2.224,11.158H86.591Z" fill="#021026"/>
      <path id="패스_5229" data-name="패스 5229" d="M97.839,463.327h6.477l-.734,3.67H97.105Z" fill="#021026"/>
      <g id="그룹_3672" data-name="그룹 3672">
        <g id="그룹_3671" data-name="그룹 3671">
          <path id="패스_5529" data-name="패스 5529" d="M125.462,457.57a7.353,7.353,0,0,0-4.68-1.31H113a1.08,1.08,0,1,0,0,2.16h1.02a1.075,1.075,0,1,1,0,2.15h-2.988a1.08,1.08,0,1,0,0,2.16h2.348a1.08,1.08,0,0,1,0,2.16h-1.44a1.08,1.08,0,0,0-.03,2.16h.14a1.08,1.08,0,1,1,0,2.16h-2.71a1.08,1.08,0,1,0,0,2.16h6.8l.73-3.71h2.61a9.77,9.77,0,0,0,4.03-.8,6.243,6.243,0,0,0,2.68-2.25,6.086,6.086,0,0,0,.94-3.35A4.442,4.442,0,0,0,125.462,457.57Zm-4.08,5.63a2.417,2.417,0,0,1-1.64.53l-2.09-.01.71-3.54h1.71c1.26,0,1.9.52,1.9,1.54A1.9,1.9,0,0,1,121.382,463.2Z" fill="#476ff1"/>
        </g>
        <rect id="사각형_1859" data-name="사각형 1859" width="3.428" height="2.159" rx="1.079" transform="translate(106.298 464.892)" fill="#476ff1"/>
        <rect id="사각형_1860" data-name="사각형 1860" width="2.159" height="2.159" rx="1.079" transform="translate(108.857 456.244)" fill="#476ff1"/>
      </g>
    </g>
  </g>
</svg>
