<svg xmlns="http://www.w3.org/2000/svg" width="54" height="54" viewBox="0 0 54 54">
  <g id="그룹_3810" data-name="그룹 3810" transform="translate(-4806 101)">
    <rect id="사각형_1883" data-name="사각형 1883" width="54" height="54" transform="translate(4806 -101)" fill="#ecf0fe"/>
    <g id="그룹_3809" data-name="그룹 3809" transform="translate(4813.941 -88.294)">
      <g id="그룹_3671" data-name="그룹 3671" transform="translate(3.592 0)">
        <path id="패스_5529" data-name="패스 5529" d="M139.723,458.669a13.45,13.45,0,0,0-8.56-2.4H116.932a1.975,1.975,0,0,0,0,3.951H118.8a1.966,1.966,0,1,1,0,3.933h-5.465a1.975,1.975,0,1,0,0,3.951h4.295a1.975,1.975,0,0,1,0,3.951h-2.634a1.976,1.976,0,0,0-.055,3.951h.256a1.975,1.975,0,0,1,0,3.951h-4.957a1.976,1.976,0,0,0,0,3.951h12.438l1.335-6.786h4.774a17.87,17.87,0,0,0,7.371-1.463,11.42,11.42,0,0,0,4.9-4.116,11.132,11.132,0,0,0,1.719-6.128A8.125,8.125,0,0,0,139.723,458.669Zm-7.463,10.3a4.42,4.42,0,0,1-3,.969l-3.823-.018,1.3-6.475h3.128c2.3,0,3.475.951,3.475,2.817A3.468,3.468,0,0,1,132.26,468.967Z" transform="translate(-108.262 -456.244)" fill="#476ff1"/>
      </g>
      <rect id="사각형_1859" data-name="사각형 1859" width="6.269" height="3.949" rx="1.079" transform="translate(0 15.818)" fill="#476ff1"/>
      <rect id="사각형_1860" data-name="사각형 1860" width="3.949" height="3.949" rx="1.079" transform="translate(4.681 0)" fill="#476ff1"/>
    </g>
  </g>
</svg>
