<svg xmlns="http://www.w3.org/2000/svg" xmlns:xlink="http://www.w3.org/1999/xlink" width="120" height="120" viewBox="0 0 120 120">
  <defs>
    <clipPath id="clip-path">
      <rect id="사각형_1872" data-name="사각형 1872" width="120" height="120" fill="none"/>
    </clipPath>
  </defs>
  <g id="img_profile_c_120_01" transform="translate(-343.724 -181.952)">
    <g id="그룹_3735" data-name="그룹 3735" transform="translate(343.724 181.952)" clip-path="url(#clip-path)">
      <g id="img_profile_m_120_01" data-name="img profile m 120 01" transform="translate(-28.499)">
        <g id="사각형_1869" data-name="사각형 1869" transform="translate(28.499)">
          <rect id="사각형_1871" data-name="사각형 1871" width="120" height="120" fill="#fef4ec"/>
        </g>
        <g id="그룹_3683" data-name="그룹 3683" transform="translate(64.7 40.819)">
          <g id="그룹_3682" data-name="그룹 3682">
            <path id="패스_5597" data-name="패스 5597" d="M454.655,262.53a71.774,71.774,0,0,0-1.1-10.951c-12.65-.7-25.249-1.35-37.9-2.05a20.382,20.382,0,0,1-1.5,15,20.07,20.07,0,0,1-10.5,9.2c.072.216.156,3.439.236,7.486v0a27.708,27.708,0,0,1,4.2,3.033c13.244,11.207,23.481,12.1,26.364,12.109v-.375c2.95-.15,5.7-.3,8.7-1.95C455.205,287.429,454.806,265.88,454.655,262.53Z" transform="translate(-403.655 -249.529)" fill="#ffc2c2"/>
          </g>
        </g>
        <g id="그룹_3685" data-name="그룹 3685" transform="translate(64.935 72.501)">
          <g id="그룹_3684" data-name="그룹 3684">
            <path id="패스_5598" data-name="패스 5598" d="M409.492,306.044q-.618-.5-1.246-1.032a27.71,27.71,0,0,0-4.2-3.033v0c.008.439.017.887.025,1.342v.08c.017.908.033,1.844.049,2.783l0,.105c.012.706.024,1.413.034,2.114v.059c.033,2.058.062,4.051.086,5.746,0,.174,0,.346.007.513,0,.108,0,.214,0,.32h0c.007.509.013.984.019,1.415l0,.227c.005.388.01.737.014,1.041l0,.12c.005.408.009.727.012.94l0,.259v.049c2.835-.028,6.522-.024,10.483-.007,3.1.014,6.359.036,9.517.057h1.35c3.25,0,6.3.05,8.95.1v-2.125C431.819,317.116,422.13,316.274,409.492,306.044Z" transform="translate(-404.045 -301.979)" fill="#ffc2c2"/>
          </g>
        </g>
        <g id="그룹_3687" data-name="그룹 3687" transform="translate(65.048 78.987)">
          <g id="그룹_3686" data-name="그룹 3686">
            <path id="패스_5599" data-name="패스 5599" d="M404.318,318.463c-.024-1.695-.053-3.688-.086-5.746C404.265,314.776,404.294,316.768,404.318,318.463Z" transform="translate(-404.232 -312.717)" fill="#f6a1a1"/>
          </g>
        </g>
        <g id="그룹_3689" data-name="그룹 3689" transform="translate(65.168 87.208)">
          <g id="그룹_3688" data-name="그룹 3688">
            <path id="패스_5600" data-name="패스 5600" d="M404.445,327.369c0-.3-.008-.654-.014-1.041C404.436,326.716,404.441,327.065,404.445,327.369Z" transform="translate(-404.431 -326.328)" fill="#f6a1a1"/>
          </g>
        </g>
        <g id="그룹_3691" data-name="그룹 3691" transform="translate(65.141 85.247)">
          <g id="그룹_3690" data-name="그룹 3690">
            <path id="패스_5601" data-name="패스 5601" d="M404.391,323.4c0-.105,0-.212,0-.32Z" transform="translate(-404.386 -323.08)" fill="#f6a1a1"/>
          </g>
        </g>
        <g id="그룹_3693" data-name="그룹 3693" transform="translate(65.013 76.814)">
          <g id="그룹_3692" data-name="그룹 3692">
            <path id="패스_5602" data-name="패스 5602" d="M404.207,311.233c-.011-.7-.022-1.409-.034-2.114C404.185,309.824,404.2,310.532,404.207,311.233Z" transform="translate(-404.173 -309.119)" fill="#f6a1a1"/>
          </g>
        </g>
        <g id="그룹_3695" data-name="그룹 3695" transform="translate(65.146 85.567)">
          <g id="그룹_3694" data-name="그룹 3694">
            <path id="패스_5603" data-name="패스 5603" d="M404.413,325.025c-.006-.431-.013-.906-.019-1.415Q404.4,324.377,404.413,325.025Z" transform="translate(-404.394 -323.61)" fill="#f6a1a1"/>
          </g>
        </g>
        <g id="그룹_3697" data-name="그룹 3697" transform="translate(65.184 88.369)">
          <g id="그룹_3696" data-name="그룹 3696">
            <path id="패스_5604" data-name="패스 5604" d="M404.469,329.19c0-.213-.007-.532-.012-.94C404.462,328.66,404.466,328.977,404.469,329.19Z" transform="translate(-404.457 -328.25)" fill="#f6a1a1"/>
          </g>
        </g>
        <g id="그룹_3699" data-name="그룹 3699" transform="translate(65.199 89.568)">
          <g id="그룹_3698" data-name="그룹 3698">
            <path id="패스_5605" data-name="패스 5605" d="M404.483,330.284v0Z" transform="translate(-404.482 -330.235)" fill="#f6a1a1"/>
          </g>
        </g>
        <g id="그룹_3701" data-name="그룹 3701" transform="translate(64.935 72.503)">
          <g id="그룹_3700" data-name="그룹 3700">
            <path id="패스_5606" data-name="패스 5606" d="M404.07,303.325c-.008-.455-.017-.9-.025-1.342C404.053,302.422,404.062,302.87,404.07,303.325Z" transform="translate(-404.045 -301.983)" fill="#f6a1a1"/>
          </g>
        </g>
        <g id="그룹_3703" data-name="그룹 3703" transform="translate(64.962 73.925)">
          <g id="그룹_3702" data-name="그룹 3702">
            <path id="패스_5607" data-name="패스 5607" d="M404.138,307.12c-.016-.94-.032-1.875-.049-2.783C404.106,305.245,404.122,306.181,404.138,307.12Z" transform="translate(-404.089 -304.337)" fill="#f6a1a1"/>
          </g>
        </g>
        <g id="그룹_3705" data-name="그룹 3705" transform="translate(65.165 86.982)">
          <g id="그룹_3704" data-name="그룹 3704">
            <path id="패스_5608" data-name="패스 5608" d="M404.429,326.18l0-.227Z" transform="translate(-404.426 -325.953)" fill="#ffc2c2"/>
          </g>
        </g>
        <g id="그룹_3707" data-name="그룹 3707" transform="translate(65.182 88.25)">
          <g id="그룹_3706" data-name="그룹 3706">
            <path id="패스_5609" data-name="패스 5609" d="M404.456,328.172l0-.12Z" transform="translate(-404.454 -328.052)" fill="#ffc2c2"/>
          </g>
        </g>
        <g id="그룹_3709" data-name="그룹 3709" transform="translate(65.196 89.309)">
          <g id="그룹_3708" data-name="그룹 3708">
            <path id="패스_5610" data-name="패스 5610" d="M404.48,330.065l0-.259Z" transform="translate(-404.477 -329.806)" fill="#ffc2c2"/>
          </g>
        </g>
        <g id="그룹_3711" data-name="그룹 3711" transform="translate(65.047 78.928)">
          <g id="그룹_3710" data-name="그룹 3710">
            <path id="패스_5611" data-name="패스 5611" d="M404.231,312.678v0Z" transform="translate(-404.23 -312.619)" fill="#ffc2c2"/>
          </g>
        </g>
        <g id="그룹_3713" data-name="그룹 3713" transform="translate(64.961 73.845)">
          <g id="그룹_3712" data-name="그룹 3712">
            <path id="패스_5612" data-name="패스 5612" d="M404.088,304.285v0Z" transform="translate(-404.087 -304.205)" fill="#ffc2c2"/>
          </g>
        </g>
        <g id="그룹_3715" data-name="그룹 3715" transform="translate(65.011 76.709)">
          <g id="그룹_3714" data-name="그룹 3714">
            <path id="패스_5613" data-name="패스 5613" d="M404.172,309.05l0-.105Z" transform="translate(-404.17 -308.945)" fill="#ffc2c2"/>
          </g>
        </g>
        <g id="그룹_3717" data-name="그룹 3717" transform="translate(65.146 85.566)">
          <g id="그룹_3716" data-name="그룹 3716">
            <path id="패스_5614" data-name="패스 5614" d="M404.394,323.61h0Z" transform="translate(-404.394 -323.609)" fill="#ffc2c2"/>
          </g>
        </g>
        <g id="그룹_3719" data-name="그룹 3719" transform="translate(65.134 84.733)">
          <g id="그룹_3718" data-name="그룹 3718">
            <path id="패스_5615" data-name="패스 5615" d="M404.381,322.743c0-.168,0-.339-.007-.513C404.376,322.4,404.379,322.576,404.381,322.743Z" transform="translate(-404.374 -322.23)" fill="#ffc2c2"/>
          </g>
        </g>
        <g id="패스_5578" data-name="패스 5578" transform="translate(0 89.448)">
          <g id="그룹_3720" data-name="그룹 3720">
            <path id="패스_5616" data-name="패스 5616" d="M464.443,366.757c-.5-.1-1-.25-1.5-.35-5.9-1.35-11.85-2.75-17.75-4.1a6.851,6.851,0,0,1-.85-.2,4.679,4.679,0,0,1-.8-.2c-1.2-2.1-2.5-4.1-3.85-6a49.714,49.714,0,0,0-7.2-7.95,39.31,39.31,0,0,0-12.4-7.3c-.35-.15-.7-.25-1.05-.4a69.034,69.034,0,0,0-18.75-3.1v-6.85s-3.35-.05-8.2-.1c-2.65-.05-5.75-.05-8.95-.1h-1.35c-7.2-.05-14.95-.1-20-.05-3.1.05-5.2.1-5.5.2-.15,2.75-.25,5.5-.4,8.25a81.777,81.777,0,0,0-14.35,3.25c-.3.1-.6.2-.95.35a47.323,47.323,0,0,0-19.95,12.9s-4.55,5.1-10.5,16.45l-.45.9a187.724,187.724,0,0,0-10.2,24c-.8,2.35-1.6,4.75-1.6,4.75-.25.85-.55,1.7-.8,2.55-.2.6-.4,1.25-.55,1.85v.05c.35.4.75.8,1.1,1.2l.2.2c.2.2.35.4.4.4,3.4,3.65,6.8,6.75,6.8,6.75.75.7,2.6,2.35,5.15,4.349.05.05.25.2.5.4,1.8,1.45,3.9,3.05,6.35,4.7,3,2.054,5.449,3.451,7.3,4.5,3.8,2.2,6.8,3.6,7.6,4,0,0,4,1.9,7.248,3.1.3.1,1.25.45,2.3.85.15.05.55.2,1.05.4a3.688,3.688,0,0,1,.55.2h.05c.05,0,.1.05.15.05a.831.831,0,0,1,.25.1.926.926,0,0,0,.35.1l.45.15c.4.1.85.3,1.35.45.2.05.35.1.55.15.75.25,1.65.5,2.65.8.15.049.25.049.4.1.6.15,1.2.35,1.752.5.4.1.85.2,1.25.3.45.1.9.25,1.35.35,1.4.35,2.85.65,4.45.95.45.1.9.15,1.4.25,2,.35,4.047.65,6.05.9.85.1,1.8.2,2.8.3,2.05.2,4.047.35,6,.4.45,0,.85.049,1.3.049.6,0,1.2.05,1.8.05h2.85c1.3,0,2.45-.05,3.5-.1h.1a5.405,5.405,0,0,0,.9-.05h.1c.5-.05,1.05-.05,1.55-.1,2.65-.15,5.35-.45,7.95-.8.5-.05,1-.15,1.5-.2,1.35-.2,2.75-.45,4.3-.75h.1c.35-.05.7-.15,1.05-.2.4-.1.75-.15,1.148-.25.55-.1,1.05-.25,1.6-.35.15-.05.3-.05.45-.1.45-.1.9-.25,1.4-.35a1.553,1.553,0,0,1,.4-.1,8.135,8.135,0,0,1,1.05-.25,112.751,112.751,0,0,0,13.85-4.7l.4-.15c.05,0,.1-.05.15-.05.45-.2.85-.35,1.3-.55h.05c.1-.05.15-.05.25-.1.5-.2.95-.45,1.4-.65l.15-.05c.4-.2.75-.35,1.1-.5h.05c.05,0,.05-.05.1-.05.45-.2.851-.4,1.25-.6.1-.049.15-.1.25-.1.5-.25.9-.45,1.35-.7.3-.15.6-.3.85-.45l.2-.1h.05c.25-.15.5-.25.75-.4l.25-.15c.5-.3,1.05-.55,1.55-.85.55-.3,1.05-.6,1.6-.9.1-.05.15-.1.25-.15.5-.3,1.05-.6,1.6-.95s1.1-.7,1.7-1.05l1.65-1.05.05-.05c.55-.35,1.05-.7,1.55-1.05.55-.35,1.1-.75,1.6-1.1.55-.4,1.05-.75,1.6-1.148.4-.3.85-.6,1.25-.95a1.072,1.072,0,0,1,.3-.2l.1-.05,1.5-1.2.05-.05c.45-.35.9-.7,1.3-1.05l.25-.2c.5-.4.95-.8,1.45-1.2l.049-.05,1.2-1.05c.6-.5,1.2-1.05,1.752-1.6.45-.4.9-.85,1.35-1.25l.05-.05c.5-.45.95-.9,1.4-1.35l.15-.15.6-.6.15-.15.9-.9.5-.5c.4-.4.8-.85,1.2-1.25l.35-.35a114.8,114.8,0,0,0,10.25-12.9c.25-.35.45-.7.7-1,.2-4.55.35-9.15.55-13.7,0-.6.05-1.2.05-1.8.15-3.1.25-6.15.4-9.25C469.443,367.907,466.943,367.356,464.443,366.757Z" transform="translate(-296.543 -330.036)" fill="#f19147"/>
          </g>
        </g>
        <g id="패스_5579" data-name="패스 5579" transform="translate(44.05 101.319)">
          <g id="그룹_3721" data-name="그룹 3721">
            <path id="패스_5617" data-name="패스 5617" d="M413.769,450.388c-.3,0-.6.05-.9.05h-.1c-5.4-33.1-20.9-60-32.45-80.05-4.6-8-8.55-14.8-10.85-20.35.3-.1.6-.2.95-.35,2.3,5.45,6.15,12.2,10.8,20.2C392.769,390.038,408.368,417.038,413.769,450.388Z" transform="translate(-369.469 -349.688)" fill="#fff"/>
          </g>
        </g>
        <g id="패스_5580" data-name="패스 5580" transform="translate(85.152 89.619)">
          <g id="그룹_3722" data-name="그룹 3722">
            <path id="패스_5618" data-name="패스 5618" d="M486.715,429.869c-.05,0-.05.05-.1.05-.25.15-.5.25-.75.4h-.05c-1.752-3-3.45-6.049-5.15-9.25a377.17,377.17,0,0,1-22.9-52.3c-6.1-17.4-12.85-30.25-20.25-38.45h1.35c7.248,8.3,13.9,21.05,19.85,38.1a326.661,326.661,0,0,0,22.349,51.2C483.363,423.97,485.363,427.519,486.715,429.869Z" transform="translate(-437.515 -330.319)" fill="#fff"/>
          </g>
        </g>
        <g id="패스_5581" data-name="패스 5581" transform="translate(122.403 99.769)">
          <g id="그룹_3723" data-name="그룹 3723">
            <path id="패스_5619" data-name="패스 5619" d="M537.381,417.022l-.15.15-.6.6c-4.75-8.55-10.148-17.2-15.3-25.4-1.9-3-3.7-5.95-5.5-8.8-8.95-14.5-16.1-27.3-16.65-36.45a9.038,9.038,0,0,1,1.05.4c.75,8.749,7.6,21.15,15.9,34.7,1.95,3.15,3.95,6.4,6,9.65C527.331,399.972,532.681,408.522,537.381,417.022Z" transform="translate(-499.184 -347.122)" fill="#fff"/>
          </g>
        </g>
        <g id="패스_5584" data-name="패스 5584" transform="translate(72.305 77.774)">
          <g id="그룹_3725" data-name="그룹 3725" transform="translate(0.695 0.694)">
            <path id="패스_5621" data-name="패스 5621" d="M439.446,320.859c-2.651,0-15.6-.45-22-8.6a.251.251,0,1,1,.4-.3h0c6.95,8.85,21.9,8.4,22.047,8.4a.25.25,0,1,1,0,.5Z" transform="translate(-417.395 -311.857)"/>
          </g>
          <g id="그룹_3726" data-name="그룹 3726">
            <path id="패스_5622" data-name="패스 5622" d="M438.992,321.1h0c-2.6,0-15.921-.427-22.546-8.866a.945.945,0,1,1,1.5-1.149c6.42,8.176,19.945,8.157,21.457,8.124h0a.945.945,0,1,1,.034,1.889Zm.443-1.391h0Zm-22.591-7.777.01.013Z" transform="translate(-416.245 -310.708)"/>
          </g>
        </g>
        <g id="패스_5585" data-name="패스 5585" transform="translate(56.039 18.002)">
          <g id="그룹_3727" data-name="그룹 3727">
            <path id="패스_5623" data-name="패스 5623" d="M447.879,236.623h0a9.427,9.427,0,0,0-.249-1.148,12.185,12.185,0,0,0-.4-1.45,29.527,29.527,0,0,0-7.248-12.85c-7.2-7.352-20.651-12.8-29.652-6.952a17.045,17.045,0,0,0-5.85,6.85c.3-2.45.35-4.95-1-4.45-1.65.65-1,4.3-.4,6.7-2.8-1.35-6.25-2.7-7.6-1.752a1.182,1.182,0,0,0-.5,1.2c.349,1.249,3.5,1.853,6.551,2.152-3.1,1.35-9.45,5-11.55,12.6-2.15,7.75,1.05,16.3,8,21.25a19.782,19.782,0,0,0,12-24.2C422.63,235.223,435.229,235.92,447.879,236.623Z" transform="translate(-389.318 -211.756)"/>
          </g>
        </g>
        <g id="패스_5586" data-name="패스 5586" transform="translate(104.252 52.769)">
          <g id="그룹_3728" data-name="그룹 3728">
            <path id="패스_5624" data-name="패스 5624" d="M470.785,272.613a1.65,1.65,0,1,0-1.65-1.65,1.65,1.65,0,0,0,1.65,1.65Z" transform="translate(-469.135 -269.313)"/>
          </g>
        </g>
        <g id="패스_5587" data-name="패스 5587" transform="translate(85.9 52.569)">
          <g id="그룹_3729" data-name="그룹 3729">
            <path id="패스_5625" data-name="패스 5625" d="M440.4,272.281a1.65,1.65,0,1,0-1.65-1.65,1.65,1.65,0,0,0,1.65,1.65Z" transform="translate(-438.752 -268.981)"/>
          </g>
        </g>
        <g id="패스_5589" data-name="패스 5589" transform="translate(96.051 53.193)">
          <g id="그룹_3730" data-name="그룹 3730" transform="translate(0.687 0.695)">
            <path id="패스_5626" data-name="패스 5626" d="M456.958,285.971a.332.332,0,0,1-.25-.2c-.05-.15.05-.249.2-.3l5.3-1.3-3.6-12.7a.237.237,0,0,1,.45-.15l3.7,12.95v.2c0,.05-.1.1-.15.1l-5.551,1.4Z" transform="translate(-456.694 -271.166)"/>
          </g>
          <g id="그룹_3731" data-name="그룹 3731">
            <path id="패스_5627" data-name="패스 5627" d="M456.455,286.212l-.068-.012a1.021,1.021,0,0,1-.772-.62.932.932,0,0,1,.612-1.222l.064-.019,4.6-1.129-3.4-12.008a.932.932,0,0,1,1.766-.59l.02.06L463,283.813v.2a.823.823,0,0,1-.719.785Z" transform="translate(-455.558 -270.015)"/>
          </g>
        </g>
        <g id="패스_5594" data-name="패스 5594" transform="translate(52.724 53.919)">
          <g id="그룹_3732" data-name="그룹 3732">
            <path id="패스_5628" data-name="패스 5628" d="M392.017,292.617c4.522,0,8.188-4.79,8.188-10.7s-3.666-10.7-8.188-10.7-8.188,4.791-8.188,10.7S387.494,292.617,392.017,292.617Z" transform="translate(-383.829 -271.217)" fill="#ffc2c2"/>
          </g>
        </g>
        <g id="그룹_3680" data-name="그룹 3680" transform="translate(56.93 58.789)">
          <g id="패스_5595" data-name="패스 5595" transform="translate(4.076 10.065)">
            <g id="그룹_3733" data-name="그룹 3733">
              <path id="패스_5629" data-name="패스 5629" d="M401.85,295.941a6.915,6.915,0,0,1-4.311,1.851c.561.358,1.946.952,2.879.419A3.3,3.3,0,0,0,401.85,295.941Z" transform="translate(-397.539 -295.941)" fill="#f6a1a1"/>
            </g>
          </g>
          <g id="패스_5596" data-name="패스 5596">
            <g id="그룹_3734" data-name="그룹 3734">
              <path id="패스_5630" data-name="패스 5630" d="M393.062,279.683a4.422,4.422,0,0,0-2.02,5.328,12.664,12.664,0,0,1,2.449-3.91,6.385,6.385,0,0,1,3.63-1.375A5.057,5.057,0,0,0,393.062,279.683Z" transform="translate(-390.792 -279.279)" fill="#f6a1a1"/>
            </g>
          </g>
        </g>
      </g>
    </g>
  </g>
</svg>
